<?xml version="1.0" encoding="utf-8" standalone="no"?>
<!DOCTYPE svg PUBLIC "-//W3C//DTD SVG 1.1//EN"
  "http://www.w3.org/Graphics/SVG/1.1/DTD/svg11.dtd">
<svg xmlns:xlink="http://www.w3.org/1999/xlink" width="372.96pt" height="370.08pt" viewBox="0 0 372.96 370.08" xmlns="http://www.w3.org/2000/svg" version="1.1">
 <metadata>
  <rdf:RDF xmlns:dc="http://purl.org/dc/elements/1.1/" xmlns:cc="http://creativecommons.org/ns#" xmlns:rdf="http://www.w3.org/1999/02/22-rdf-syntax-ns#">
   <cc:Work>
    <dc:type rdf:resource="http://purl.org/dc/dcmitype/StillImage"/>
    <dc:date>2025-09-02T17:44:14.253023</dc:date>
    <dc:format>image/svg+xml</dc:format>
    <dc:creator>
     <cc:Agent>
      <dc:title>Matplotlib v3.10.3, https://matplotlib.org/</dc:title>
     </cc:Agent>
    </dc:creator>
   </cc:Work>
  </rdf:RDF>
 </metadata>
 <defs>
  <style type="text/css">*{stroke-linejoin: round; stroke-linecap: butt}</style>
 </defs>
 <g id="figure_1">
  <g id="patch_1">
   <path d="M 0 370.08 
L 372.96 370.08 
L 372.96 0 
L 0 0 
z
" style="fill: #ffffff"/>
  </g>
  <g id="axes_1">
   <g id="patch_2">
    <path d="M 52.2144 336.7728 
L 369.2304 336.7728 
L 369.2304 3.7008 
L 52.2144 3.7008 
z
" style="fill: #ffffff"/>
   </g>
   <g id="FillBetweenPolyCollection_1">
    <defs>
     <path id="m9d7c2b2e96" d="M 52.2144 -50.807791 
L 52.2144 -89.343064 
L 55.416582 -91.886999 
L 58.618764 -94.431622 
L 61.820945 -96.976973 
L 65.023127 -99.523095 
L 68.225309 -102.070032 
L 71.427491 -104.617833 
L 74.629673 -107.166551 
L 77.831855 -109.716242 
L 81.034036 -112.26697 
L 84.236218 -114.818799 
L 87.4384 -117.371802 
L 90.640582 -119.926058 
L 93.842764 -122.481652 
L 97.044945 -125.038675 
L 100.247127 -127.597231 
L 103.449309 -130.157427 
L 106.651491 -132.719386 
L 109.853673 -135.283238 
L 113.055855 -137.849127 
L 116.258036 -140.417213 
L 119.460218 -142.987669 
L 122.6624 -145.560685 
L 125.864582 -148.136473 
L 129.066764 -150.715265 
L 132.268945 -153.297317 
L 135.471127 -155.882911 
L 138.673309 -158.47236 
L 141.875491 -161.066011 
L 145.077673 -163.664245 
L 148.279855 -166.267488 
L 151.482036 -168.876207 
L 154.684218 -171.490921 
L 157.8864 -174.112204 
L 161.088582 -176.740686 
L 164.290764 -179.377064 
L 167.492945 -182.022098 
L 170.695127 -184.676621 
L 173.897309 -187.341537 
L 177.099491 -190.017819 
L 180.301673 -192.706508 
L 183.503855 -195.408703 
L 186.706036 -198.125549 
L 189.908218 -200.858221 
L 193.1104 -203.607897 
L 196.312582 -206.375728 
L 199.514764 -209.162802 
L 202.716945 -211.970106 
L 205.919127 -214.798482 
L 209.121309 -217.648588 
L 212.323491 -220.520868 
L 215.525673 -223.415525 
L 218.727855 -226.33251 
L 221.930036 -229.271526 
L 225.132218 -232.232044 
L 228.3344 -235.21333 
L 231.536582 -238.214483 
L 234.738764 -241.234471 
L 237.940945 -244.272179 
L 241.143127 -247.326439 
L 244.345309 -250.396073 
L 247.547491 -253.479915 
L 250.749673 -256.576835 
L 253.951855 -259.685755 
L 257.154036 -262.80566 
L 260.356218 -265.935602 
L 263.5584 -269.074706 
L 266.760582 -272.222166 
L 269.962764 -275.377247 
L 273.164945 -278.539278 
L 276.367127 -281.707651 
L 279.569309 -284.881814 
L 282.771491 -288.061269 
L 285.973673 -291.245563 
L 289.175855 -294.434291 
L 292.378036 -297.627082 
L 295.580218 -300.823606 
L 298.7824 -304.02356 
L 301.984582 -307.226672 
L 305.186764 -310.432696 
L 308.388945 -313.641409 
L 311.591127 -316.852607 
L 314.793309 -320.066107 
L 317.995491 -323.28174 
L 321.197673 -326.499354 
L 324.399855 -329.71881 
L 327.602036 -332.93998 
L 330.804218 -336.162748 
L 334.0064 -339.387007 
L 337.208582 -342.612661 
L 340.410764 -345.839618 
L 343.612945 -349.067797 
L 346.815127 -352.297122 
L 350.017309 -355.527523 
L 353.219491 -358.758935 
L 356.421673 -361.991299 
L 359.623855 -365.224559 
L 362.826036 -368.458664 
L 366.028218 -371.693566 
L 369.2304 -374.929222 
L 369.2304 -337.513247 
L 369.2304 -337.513247 
L 366.028218 -334.96818 
L 362.826036 -332.422359 
L 359.623855 -329.875741 
L 356.421673 -327.328277 
L 353.219491 -324.779917 
L 350.017309 -322.230606 
L 346.815127 -319.680283 
L 343.612945 -317.128885 
L 340.410764 -314.576341 
L 337.208582 -312.022575 
L 334.0064 -309.467505 
L 330.804218 -306.911041 
L 327.602036 -304.353086 
L 324.399855 -301.793533 
L 321.197673 -299.232265 
L 317.995491 -296.669155 
L 314.793309 -294.104065 
L 311.591127 -291.536841 
L 308.388945 -288.967316 
L 305.186764 -286.395306 
L 301.984582 -283.820607 
L 298.7824 -281.242996 
L 295.580218 -278.662226 
L 292.378036 -276.078026 
L 289.175855 -273.490095 
L 285.973673 -270.898098 
L 282.771491 -268.30167 
L 279.569309 -265.700401 
L 276.367127 -263.093841 
L 273.164945 -260.48149 
L 269.962764 -257.862798 
L 266.760582 -255.237156 
L 263.5584 -252.603892 
L 260.356218 -249.962273 
L 257.154036 -247.311492 
L 253.951855 -244.650673 
L 250.749673 -241.97887 
L 247.547491 -239.295066 
L 244.345309 -236.598185 
L 241.143127 -233.887095 
L 237.940945 -231.160632 
L 234.738764 -228.417616 
L 231.536582 -225.656881 
L 228.3344 -222.877311 
L 225.132218 -220.077874 
L 221.930036 -217.257668 
L 218.727855 -214.415961 
L 215.525673 -211.552222 
L 212.323491 -208.666156 
L 209.121309 -205.757713 
L 205.919127 -202.827096 
L 202.716945 -199.874748 
L 199.514764 -196.901329 
L 196.312582 -193.90768 
L 193.1104 -190.894787 
L 189.908218 -187.863739 
L 186.706036 -184.815688 
L 183.503855 -181.751811 
L 180.301673 -178.673283 
L 177.099491 -175.581248 
L 173.897309 -172.476807 
L 170.695127 -169.360999 
L 167.492945 -166.234799 
L 164.290764 -163.09911 
L 161.088582 -159.954764 
L 157.8864 -156.802523 
L 154.684218 -153.643082 
L 151.482036 -150.477073 
L 148.279855 -147.305069 
L 145.077673 -144.127588 
L 141.875491 -140.945099 
L 138.673309 -137.758027 
L 135.471127 -134.566753 
L 132.268945 -131.371623 
L 129.066764 -128.172951 
L 125.864582 -124.97102 
L 122.6624 -121.766084 
L 119.460218 -118.558378 
L 116.258036 -115.34811 
L 113.055855 -112.135472 
L 109.853673 -108.920639 
L 106.651491 -105.703767 
L 103.449309 -102.485002 
L 100.247127 -99.264476 
L 97.044945 -96.042307 
L 93.842764 -92.818608 
L 90.640582 -89.593478 
L 87.4384 -86.36701 
L 84.236218 -83.13929 
L 81.034036 -79.910396 
L 77.831855 -76.6804 
L 74.629673 -73.449368 
L 71.427491 -70.217363 
L 68.225309 -66.984441 
L 65.023127 -63.750654 
L 61.820945 -60.516052 
L 58.618764 -57.28068 
L 55.416582 -54.04458 
L 52.2144 -50.807791 
z
" style="stroke: #dddddd"/>
    </defs>
    <g clip-path="url(#p4908a795f0)">
     <use xlink:href="#m9d7c2b2e96" x="0" y="370.08" style="fill: #dddddd; stroke: #dddddd"/>
    </g>
   </g>
   <g id="matplotlib.axis_1">
    <g id="xtick_1">
     <g id="line2d_1">
      <path d="M 83.916 336.7728 
L 83.916 3.7008 
" clip-path="url(#p4908a795f0)" style="fill: none; stroke-dasharray: 0.8,1.32; stroke-dashoffset: 0; stroke: #b0b0b0; stroke-width: 0.8"/>
     </g>
     <g id="line2d_2">
      <defs>
       <path id="mb86fd0c86d" d="M 0 0 
L 0 3.5 
" style="stroke: #000000; stroke-width: 0.8"/>
      </defs>
      <g>
       <use xlink:href="#mb86fd0c86d" x="83.916" y="336.7728" style="stroke: #000000; stroke-width: 0.8"/>
      </g>
     </g>
     <g id="text_1">
      <!-- −60 -->
      <g transform="translate(73.363656 351.371238) scale(0.1 -0.1)">
       <defs>
        <path id="DejaVuSans-2212" d="M 678 2272 
L 4684 2272 
L 4684 1741 
L 678 1741 
L 678 2272 
z
" transform="scale(0.015625)"/>
        <path id="DejaVuSans-36" d="M 2113 2584 
Q 1688 2584 1439 2293 
Q 1191 2003 1191 1497 
Q 1191 994 1439 701 
Q 1688 409 2113 409 
Q 2538 409 2786 701 
Q 3034 994 3034 1497 
Q 3034 2003 2786 2293 
Q 2538 2584 2113 2584 
z
M 3366 4563 
L 3366 3988 
Q 3128 4100 2886 4159 
Q 2644 4219 2406 4219 
Q 1781 4219 1451 3797 
Q 1122 3375 1075 2522 
Q 1259 2794 1537 2939 
Q 1816 3084 2150 3084 
Q 2853 3084 3261 2657 
Q 3669 2231 3669 1497 
Q 3669 778 3244 343 
Q 2819 -91 2113 -91 
Q 1303 -91 875 529 
Q 447 1150 447 2328 
Q 447 3434 972 4092 
Q 1497 4750 2381 4750 
Q 2619 4750 2861 4703 
Q 3103 4656 3366 4563 
z
" transform="scale(0.015625)"/>
        <path id="DejaVuSans-30" d="M 2034 4250 
Q 1547 4250 1301 3770 
Q 1056 3291 1056 2328 
Q 1056 1369 1301 889 
Q 1547 409 2034 409 
Q 2525 409 2770 889 
Q 3016 1369 3016 2328 
Q 3016 3291 2770 3770 
Q 2525 4250 2034 4250 
z
M 2034 4750 
Q 2819 4750 3233 4129 
Q 3647 3509 3647 2328 
Q 3647 1150 3233 529 
Q 2819 -91 2034 -91 
Q 1250 -91 836 529 
Q 422 1150 422 2328 
Q 422 3509 836 4129 
Q 1250 4750 2034 4750 
z
" transform="scale(0.015625)"/>
       </defs>
       <use xlink:href="#DejaVuSans-2212"/>
       <use xlink:href="#DejaVuSans-36" transform="translate(83.789062 0)"/>
       <use xlink:href="#DejaVuSans-30" transform="translate(147.412109 0)"/>
      </g>
     </g>
    </g>
    <g id="xtick_2">
     <g id="line2d_3">
      <path d="M 147.3192 336.7728 
L 147.3192 3.7008 
" clip-path="url(#p4908a795f0)" style="fill: none; stroke-dasharray: 0.8,1.32; stroke-dashoffset: 0; stroke: #b0b0b0; stroke-width: 0.8"/>
     </g>
     <g id="line2d_4">
      <g>
       <use xlink:href="#mb86fd0c86d" x="147.3192" y="336.7728" style="stroke: #000000; stroke-width: 0.8"/>
      </g>
     </g>
     <g id="text_2">
      <!-- −50 -->
      <g transform="translate(136.766856 351.371238) scale(0.1 -0.1)">
       <defs>
        <path id="DejaVuSans-35" d="M 691 4666 
L 3169 4666 
L 3169 4134 
L 1269 4134 
L 1269 2991 
Q 1406 3038 1543 3061 
Q 1681 3084 1819 3084 
Q 2600 3084 3056 2656 
Q 3513 2228 3513 1497 
Q 3513 744 3044 326 
Q 2575 -91 1722 -91 
Q 1428 -91 1123 -41 
Q 819 9 494 109 
L 494 744 
Q 775 591 1075 516 
Q 1375 441 1709 441 
Q 2250 441 2565 725 
Q 2881 1009 2881 1497 
Q 2881 1984 2565 2268 
Q 2250 2553 1709 2553 
Q 1456 2553 1204 2497 
Q 953 2441 691 2322 
L 691 4666 
z
" transform="scale(0.015625)"/>
       </defs>
       <use xlink:href="#DejaVuSans-2212"/>
       <use xlink:href="#DejaVuSans-35" transform="translate(83.789062 0)"/>
       <use xlink:href="#DejaVuSans-30" transform="translate(147.412109 0)"/>
      </g>
     </g>
    </g>
    <g id="xtick_3">
     <g id="line2d_5">
      <path d="M 210.7224 336.7728 
L 210.7224 3.7008 
" clip-path="url(#p4908a795f0)" style="fill: none; stroke-dasharray: 0.8,1.32; stroke-dashoffset: 0; stroke: #b0b0b0; stroke-width: 0.8"/>
     </g>
     <g id="line2d_6">
      <g>
       <use xlink:href="#mb86fd0c86d" x="210.7224" y="336.7728" style="stroke: #000000; stroke-width: 0.8"/>
      </g>
     </g>
     <g id="text_3">
      <!-- −40 -->
      <g transform="translate(200.170056 351.371238) scale(0.1 -0.1)">
       <defs>
        <path id="DejaVuSans-34" d="M 2419 4116 
L 825 1625 
L 2419 1625 
L 2419 4116 
z
M 2253 4666 
L 3047 4666 
L 3047 1625 
L 3713 1625 
L 3713 1100 
L 3047 1100 
L 3047 0 
L 2419 0 
L 2419 1100 
L 313 1100 
L 313 1709 
L 2253 4666 
z
" transform="scale(0.015625)"/>
       </defs>
       <use xlink:href="#DejaVuSans-2212"/>
       <use xlink:href="#DejaVuSans-34" transform="translate(83.789062 0)"/>
       <use xlink:href="#DejaVuSans-30" transform="translate(147.412109 0)"/>
      </g>
     </g>
    </g>
    <g id="xtick_4">
     <g id="line2d_7">
      <path d="M 274.1256 336.7728 
L 274.1256 3.7008 
" clip-path="url(#p4908a795f0)" style="fill: none; stroke-dasharray: 0.8,1.32; stroke-dashoffset: 0; stroke: #b0b0b0; stroke-width: 0.8"/>
     </g>
     <g id="line2d_8">
      <g>
       <use xlink:href="#mb86fd0c86d" x="274.1256" y="336.7728" style="stroke: #000000; stroke-width: 0.8"/>
      </g>
     </g>
     <g id="text_4">
      <!-- −30 -->
      <g transform="translate(263.573256 351.371238) scale(0.1 -0.1)">
       <defs>
        <path id="DejaVuSans-33" d="M 2597 2516 
Q 3050 2419 3304 2112 
Q 3559 1806 3559 1356 
Q 3559 666 3084 287 
Q 2609 -91 1734 -91 
Q 1441 -91 1130 -33 
Q 819 25 488 141 
L 488 750 
Q 750 597 1062 519 
Q 1375 441 1716 441 
Q 2309 441 2620 675 
Q 2931 909 2931 1356 
Q 2931 1769 2642 2001 
Q 2353 2234 1838 2234 
L 1294 2234 
L 1294 2753 
L 1863 2753 
Q 2328 2753 2575 2939 
Q 2822 3125 2822 3475 
Q 2822 3834 2567 4026 
Q 2313 4219 1838 4219 
Q 1578 4219 1281 4162 
Q 984 4106 628 3988 
L 628 4550 
Q 988 4650 1302 4700 
Q 1616 4750 1894 4750 
Q 2613 4750 3031 4423 
Q 3450 4097 3450 3541 
Q 3450 3153 3228 2886 
Q 3006 2619 2597 2516 
z
" transform="scale(0.015625)"/>
       </defs>
       <use xlink:href="#DejaVuSans-2212"/>
       <use xlink:href="#DejaVuSans-33" transform="translate(83.789062 0)"/>
       <use xlink:href="#DejaVuSans-30" transform="translate(147.412109 0)"/>
      </g>
     </g>
    </g>
    <g id="xtick_5">
     <g id="line2d_9">
      <path d="M 337.5288 336.7728 
L 337.5288 3.7008 
" clip-path="url(#p4908a795f0)" style="fill: none; stroke-dasharray: 0.8,1.32; stroke-dashoffset: 0; stroke: #b0b0b0; stroke-width: 0.8"/>
     </g>
     <g id="line2d_10">
      <g>
       <use xlink:href="#mb86fd0c86d" x="337.5288" y="336.7728" style="stroke: #000000; stroke-width: 0.8"/>
      </g>
     </g>
     <g id="text_5">
      <!-- −20 -->
      <g transform="translate(326.976456 351.371238) scale(0.1 -0.1)">
       <defs>
        <path id="DejaVuSans-32" d="M 1228 531 
L 3431 531 
L 3431 0 
L 469 0 
L 469 531 
Q 828 903 1448 1529 
Q 2069 2156 2228 2338 
Q 2531 2678 2651 2914 
Q 2772 3150 2772 3378 
Q 2772 3750 2511 3984 
Q 2250 4219 1831 4219 
Q 1534 4219 1204 4116 
Q 875 4013 500 3803 
L 500 4441 
Q 881 4594 1212 4672 
Q 1544 4750 1819 4750 
Q 2544 4750 2975 4387 
Q 3406 4025 3406 3419 
Q 3406 3131 3298 2873 
Q 3191 2616 2906 2266 
Q 2828 2175 2409 1742 
Q 1991 1309 1228 531 
z
" transform="scale(0.015625)"/>
       </defs>
       <use xlink:href="#DejaVuSans-2212"/>
       <use xlink:href="#DejaVuSans-32" transform="translate(83.789062 0)"/>
       <use xlink:href="#DejaVuSans-30" transform="translate(147.412109 0)"/>
      </g>
     </g>
    </g>
    <g id="text_6">
     <!-- $\mu_a$ (mV) -->
     <g transform="translate(191.4724 365.050925) scale(0.1 -0.1)">
      <defs>
       <path id="DejaVuSans-Oblique-3bc" d="M -84 -1331 
L 856 3500 
L 1434 3500 
L 1009 1322 
Q 997 1256 987 1175 
Q 978 1094 978 1013 
Q 978 722 1161 565 
Q 1344 409 1684 409 
Q 2147 409 2431 671 
Q 2716 934 2816 1459 
L 3213 3500 
L 3788 3500 
L 3266 809 
Q 3253 750 3248 706 
Q 3244 663 3244 628 
Q 3244 531 3283 486 
Q 3322 441 3406 441 
Q 3438 441 3492 456 
Q 3547 472 3647 513 
L 3559 50 
Q 3422 -19 3297 -55 
Q 3172 -91 3053 -91 
Q 2847 -91 2730 40 
Q 2613 172 2613 403 
Q 2438 153 2195 31 
Q 1953 -91 1625 -91 
Q 1334 -91 1117 43 
Q 900 178 831 397 
L 494 -1331 
L -84 -1331 
z
" transform="scale(0.015625)"/>
       <path id="DejaVuSans-Oblique-61" d="M 3438 1997 
L 3047 0 
L 2472 0 
L 2578 531 
Q 2325 219 2001 64 
Q 1678 -91 1281 -91 
Q 834 -91 548 182 
Q 263 456 263 884 
Q 263 1497 752 1853 
Q 1241 2209 2100 2209 
L 2900 2209 
L 2931 2363 
Q 2938 2388 2941 2417 
Q 2944 2447 2944 2509 
Q 2944 2788 2717 2942 
Q 2491 3097 2081 3097 
Q 1800 3097 1504 3025 
Q 1209 2953 897 2809 
L 997 3341 
Q 1322 3463 1633 3523 
Q 1944 3584 2234 3584 
Q 2853 3584 3176 3315 
Q 3500 3047 3500 2534 
Q 3500 2431 3484 2292 
Q 3469 2153 3438 1997 
z
M 2816 1759 
L 2241 1759 
Q 1534 1759 1195 1570 
Q 856 1381 856 984 
Q 856 709 1029 553 
Q 1203 397 1509 397 
Q 1978 397 2328 733 
Q 2678 1069 2791 1631 
L 2816 1759 
z
" transform="scale(0.015625)"/>
       <path id="DejaVuSans-20" transform="scale(0.015625)"/>
       <path id="DejaVuSans-28" d="M 1984 4856 
Q 1566 4138 1362 3434 
Q 1159 2731 1159 2009 
Q 1159 1288 1364 580 
Q 1569 -128 1984 -844 
L 1484 -844 
Q 1016 -109 783 600 
Q 550 1309 550 2009 
Q 550 2706 781 3412 
Q 1013 4119 1484 4856 
L 1984 4856 
z
" transform="scale(0.015625)"/>
       <path id="DejaVuSans-6d" d="M 3328 2828 
Q 3544 3216 3844 3400 
Q 4144 3584 4550 3584 
Q 5097 3584 5394 3201 
Q 5691 2819 5691 2113 
L 5691 0 
L 5113 0 
L 5113 2094 
Q 5113 2597 4934 2840 
Q 4756 3084 4391 3084 
Q 3944 3084 3684 2787 
Q 3425 2491 3425 1978 
L 3425 0 
L 2847 0 
L 2847 2094 
Q 2847 2600 2669 2842 
Q 2491 3084 2119 3084 
Q 1678 3084 1418 2786 
Q 1159 2488 1159 1978 
L 1159 0 
L 581 0 
L 581 3500 
L 1159 3500 
L 1159 2956 
Q 1356 3278 1631 3431 
Q 1906 3584 2284 3584 
Q 2666 3584 2933 3390 
Q 3200 3197 3328 2828 
z
" transform="scale(0.015625)"/>
       <path id="DejaVuSans-56" d="M 1831 0 
L 50 4666 
L 709 4666 
L 2188 738 
L 3669 4666 
L 4325 4666 
L 2547 0 
L 1831 0 
z
" transform="scale(0.015625)"/>
       <path id="DejaVuSans-29" d="M 513 4856 
L 1013 4856 
Q 1481 4119 1714 3412 
Q 1947 2706 1947 2009 
Q 1947 1309 1714 600 
Q 1481 -109 1013 -844 
L 513 -844 
Q 928 -128 1133 580 
Q 1338 1288 1338 2009 
Q 1338 2731 1133 3434 
Q 928 4138 513 4856 
z
" transform="scale(0.015625)"/>
      </defs>
      <use xlink:href="#DejaVuSans-Oblique-3bc" transform="translate(0 0.125)"/>
      <use xlink:href="#DejaVuSans-Oblique-61" transform="translate(63.623047 -16.28125) scale(0.7)"/>
      <use xlink:href="#DejaVuSans-20" transform="translate(109.25293 0.125)"/>
      <use xlink:href="#DejaVuSans-28" transform="translate(141.040039 0.125)"/>
      <use xlink:href="#DejaVuSans-6d" transform="translate(180.053711 0.125)"/>
      <use xlink:href="#DejaVuSans-56" transform="translate(277.46582 0.125)"/>
      <use xlink:href="#DejaVuSans-29" transform="translate(345.874023 0.125)"/>
     </g>
    </g>
   </g>
   <g id="matplotlib.axis_2">
    <g id="ytick_1">
     <g id="line2d_11">
      <path d="M 52.2144 324.4368 
L 369.2304 324.4368 
" clip-path="url(#p4908a795f0)" style="fill: none; stroke-dasharray: 0.8,1.32; stroke-dashoffset: 0; stroke: #b0b0b0; stroke-width: 0.8"/>
     </g>
     <g id="line2d_12">
      <defs>
       <path id="mbddd644906" d="M 0 0 
L -3.5 0 
" style="stroke: #000000; stroke-width: 0.8"/>
      </defs>
      <g>
       <use xlink:href="#mbddd644906" x="52.2144" y="324.4368" style="stroke: #000000; stroke-width: 0.8"/>
      </g>
     </g>
     <g id="text_7">
      <!-- −110 -->
      <g transform="translate(17.747213 328.236019) scale(0.1 -0.1)">
       <defs>
        <path id="DejaVuSans-31" d="M 794 531 
L 1825 531 
L 1825 4091 
L 703 3866 
L 703 4441 
L 1819 4666 
L 2450 4666 
L 2450 531 
L 3481 531 
L 3481 0 
L 794 0 
L 794 531 
z
" transform="scale(0.015625)"/>
       </defs>
       <use xlink:href="#DejaVuSans-2212"/>
       <use xlink:href="#DejaVuSans-31" transform="translate(83.789062 0)"/>
       <use xlink:href="#DejaVuSans-31" transform="translate(147.412109 0)"/>
       <use xlink:href="#DejaVuSans-30" transform="translate(211.035156 0)"/>
      </g>
     </g>
    </g>
    <g id="ytick_2">
     <g id="line2d_13">
      <path d="M 52.2144 262.7568 
L 369.2304 262.7568 
" clip-path="url(#p4908a795f0)" style="fill: none; stroke-dasharray: 0.8,1.32; stroke-dashoffset: 0; stroke: #b0b0b0; stroke-width: 0.8"/>
     </g>
     <g id="line2d_14">
      <g>
       <use xlink:href="#mbddd644906" x="52.2144" y="262.7568" style="stroke: #000000; stroke-width: 0.8"/>
      </g>
     </g>
     <g id="text_8">
      <!-- −100 -->
      <g transform="translate(17.747213 266.556019) scale(0.1 -0.1)">
       <use xlink:href="#DejaVuSans-2212"/>
       <use xlink:href="#DejaVuSans-31" transform="translate(83.789062 0)"/>
       <use xlink:href="#DejaVuSans-30" transform="translate(147.412109 0)"/>
       <use xlink:href="#DejaVuSans-30" transform="translate(211.035156 0)"/>
      </g>
     </g>
    </g>
    <g id="ytick_3">
     <g id="line2d_15">
      <path d="M 52.2144 201.0768 
L 369.2304 201.0768 
" clip-path="url(#p4908a795f0)" style="fill: none; stroke-dasharray: 0.8,1.32; stroke-dashoffset: 0; stroke: #b0b0b0; stroke-width: 0.8"/>
     </g>
     <g id="line2d_16">
      <g>
       <use xlink:href="#mbddd644906" x="52.2144" y="201.0768" style="stroke: #000000; stroke-width: 0.8"/>
      </g>
     </g>
     <g id="text_9">
      <!-- −90 -->
      <g transform="translate(24.109713 204.876019) scale(0.1 -0.1)">
       <defs>
        <path id="DejaVuSans-39" d="M 703 97 
L 703 672 
Q 941 559 1184 500 
Q 1428 441 1663 441 
Q 2288 441 2617 861 
Q 2947 1281 2994 2138 
Q 2813 1869 2534 1725 
Q 2256 1581 1919 1581 
Q 1219 1581 811 2004 
Q 403 2428 403 3163 
Q 403 3881 828 4315 
Q 1253 4750 1959 4750 
Q 2769 4750 3195 4129 
Q 3622 3509 3622 2328 
Q 3622 1225 3098 567 
Q 2575 -91 1691 -91 
Q 1453 -91 1209 -44 
Q 966 3 703 97 
z
M 1959 2075 
Q 2384 2075 2632 2365 
Q 2881 2656 2881 3163 
Q 2881 3666 2632 3958 
Q 2384 4250 1959 4250 
Q 1534 4250 1286 3958 
Q 1038 3666 1038 3163 
Q 1038 2656 1286 2365 
Q 1534 2075 1959 2075 
z
" transform="scale(0.015625)"/>
       </defs>
       <use xlink:href="#DejaVuSans-2212"/>
       <use xlink:href="#DejaVuSans-39" transform="translate(83.789062 0)"/>
       <use xlink:href="#DejaVuSans-30" transform="translate(147.412109 0)"/>
      </g>
     </g>
    </g>
    <g id="ytick_4">
     <g id="line2d_17">
      <path d="M 52.2144 139.3968 
L 369.2304 139.3968 
" clip-path="url(#p4908a795f0)" style="fill: none; stroke-dasharray: 0.8,1.32; stroke-dashoffset: 0; stroke: #b0b0b0; stroke-width: 0.8"/>
     </g>
     <g id="line2d_18">
      <g>
       <use xlink:href="#mbddd644906" x="52.2144" y="139.3968" style="stroke: #000000; stroke-width: 0.8"/>
      </g>
     </g>
     <g id="text_10">
      <!-- −80 -->
      <g transform="translate(24.109713 143.196019) scale(0.1 -0.1)">
       <defs>
        <path id="DejaVuSans-38" d="M 2034 2216 
Q 1584 2216 1326 1975 
Q 1069 1734 1069 1313 
Q 1069 891 1326 650 
Q 1584 409 2034 409 
Q 2484 409 2743 651 
Q 3003 894 3003 1313 
Q 3003 1734 2745 1975 
Q 2488 2216 2034 2216 
z
M 1403 2484 
Q 997 2584 770 2862 
Q 544 3141 544 3541 
Q 544 4100 942 4425 
Q 1341 4750 2034 4750 
Q 2731 4750 3128 4425 
Q 3525 4100 3525 3541 
Q 3525 3141 3298 2862 
Q 3072 2584 2669 2484 
Q 3125 2378 3379 2068 
Q 3634 1759 3634 1313 
Q 3634 634 3220 271 
Q 2806 -91 2034 -91 
Q 1263 -91 848 271 
Q 434 634 434 1313 
Q 434 1759 690 2068 
Q 947 2378 1403 2484 
z
M 1172 3481 
Q 1172 3119 1398 2916 
Q 1625 2713 2034 2713 
Q 2441 2713 2670 2916 
Q 2900 3119 2900 3481 
Q 2900 3844 2670 4047 
Q 2441 4250 2034 4250 
Q 1625 4250 1398 4047 
Q 1172 3844 1172 3481 
z
" transform="scale(0.015625)"/>
       </defs>
       <use xlink:href="#DejaVuSans-2212"/>
       <use xlink:href="#DejaVuSans-38" transform="translate(83.789062 0)"/>
       <use xlink:href="#DejaVuSans-30" transform="translate(147.412109 0)"/>
      </g>
     </g>
    </g>
    <g id="ytick_5">
     <g id="line2d_19">
      <path d="M 52.2144 77.7168 
L 369.2304 77.7168 
" clip-path="url(#p4908a795f0)" style="fill: none; stroke-dasharray: 0.8,1.32; stroke-dashoffset: 0; stroke: #b0b0b0; stroke-width: 0.8"/>
     </g>
     <g id="line2d_20">
      <g>
       <use xlink:href="#mbddd644906" x="52.2144" y="77.7168" style="stroke: #000000; stroke-width: 0.8"/>
      </g>
     </g>
     <g id="text_11">
      <!-- −70 -->
      <g transform="translate(24.109713 81.516019) scale(0.1 -0.1)">
       <defs>
        <path id="DejaVuSans-37" d="M 525 4666 
L 3525 4666 
L 3525 4397 
L 1831 0 
L 1172 0 
L 2766 4134 
L 525 4134 
L 525 4666 
z
" transform="scale(0.015625)"/>
       </defs>
       <use xlink:href="#DejaVuSans-2212"/>
       <use xlink:href="#DejaVuSans-37" transform="translate(83.789062 0)"/>
       <use xlink:href="#DejaVuSans-30" transform="translate(147.412109 0)"/>
      </g>
     </g>
    </g>
    <g id="ytick_6">
     <g id="line2d_21">
      <path d="M 52.2144 16.0368 
L 369.2304 16.0368 
" clip-path="url(#p4908a795f0)" style="fill: none; stroke-dasharray: 0.8,1.32; stroke-dashoffset: 0; stroke: #b0b0b0; stroke-width: 0.8"/>
     </g>
     <g id="line2d_22">
      <g>
       <use xlink:href="#mbddd644906" x="52.2144" y="16.0368" style="stroke: #000000; stroke-width: 0.8"/>
      </g>
     </g>
     <g id="text_12">
      <!-- −60 -->
      <g transform="translate(24.109713 19.836019) scale(0.1 -0.1)">
       <use xlink:href="#DejaVuSans-2212"/>
       <use xlink:href="#DejaVuSans-36" transform="translate(83.789062 0)"/>
       <use xlink:href="#DejaVuSans-30" transform="translate(147.412109 0)"/>
      </g>
     </g>
    </g>
    <g id="text_13">
     <!-- $\mu_i$ (mV) -->
     <g transform="translate(11.647213 188.3368) rotate(-90) scale(0.1 -0.1)">
      <defs>
       <path id="DejaVuSans-Oblique-69" d="M 1172 4863 
L 1747 4863 
L 1606 4134 
L 1031 4134 
L 1172 4863 
z
M 909 3500 
L 1484 3500 
L 800 0 
L 225 0 
L 909 3500 
z
" transform="scale(0.015625)"/>
      </defs>
      <use xlink:href="#DejaVuSans-Oblique-3bc" transform="translate(0 0.125)"/>
      <use xlink:href="#DejaVuSans-Oblique-69" transform="translate(63.623047 -16.28125) scale(0.7)"/>
      <use xlink:href="#DejaVuSans-20" transform="translate(85.805664 0.125)"/>
      <use xlink:href="#DejaVuSans-28" transform="translate(117.592773 0.125)"/>
      <use xlink:href="#DejaVuSans-6d" transform="translate(156.606445 0.125)"/>
      <use xlink:href="#DejaVuSans-56" transform="translate(254.018555 0.125)"/>
      <use xlink:href="#DejaVuSans-29" transform="translate(322.426758 0.125)"/>
     </g>
    </g>
   </g>
   <g id="line2d_23">
    <path d="M 52.2144 300.004572 
L 369.2304 13.858765 
" clip-path="url(#p4908a795f0)" style="fill: none; stroke: #1f77b4; stroke-width: 1.5; stroke-linecap: square"/>
   </g>
   <g id="line2d_24">
    <path d="M 52.2144 280.736936 
L 55.416582 278.193001 
L 58.618764 275.648378 
L 61.820945 273.103027 
L 65.023127 270.556905 
L 68.225309 268.009968 
L 71.427491 265.462167 
L 74.629673 262.913449 
L 77.831855 260.363758 
L 81.034036 257.81303 
L 84.236218 255.261201 
L 87.4384 252.708198 
L 90.640582 250.153942 
L 93.842764 247.598348 
L 97.044945 245.041325 
L 100.247127 242.482769 
L 103.449309 239.922573 
L 106.651491 237.360614 
L 109.853673 234.796762 
L 113.055855 232.230873 
L 116.258036 229.662787 
L 119.460218 227.092331 
L 122.6624 224.519315 
L 125.864582 221.943527 
L 129.066764 219.364735 
L 132.268945 216.782683 
L 135.471127 214.197089 
L 138.673309 211.60764 
L 141.875491 209.013989 
L 145.077673 206.415755 
L 148.279855 203.812512 
L 151.482036 201.203793 
L 154.684218 198.589079 
L 157.8864 195.967796 
L 161.088582 193.339314 
L 164.290764 190.702936 
L 167.492945 188.057902 
L 170.695127 185.403379 
L 173.897309 182.738463 
L 177.099491 180.062181 
L 180.301673 177.373492 
L 183.503855 174.671297 
L 186.706036 171.954451 
L 189.908218 169.221779 
L 193.1104 166.472103 
L 196.312582 163.704272 
L 199.514764 160.917198 
L 202.716945 158.109894 
L 205.919127 155.281518 
L 209.121309 152.431412 
L 212.323491 149.559132 
L 215.525673 146.664475 
L 218.727855 143.74749 
L 221.930036 140.808474 
L 225.132218 137.847956 
L 228.3344 134.86667 
L 231.536582 131.865517 
L 234.738764 128.845529 
L 237.940945 125.807821 
L 241.143127 122.753561 
L 244.345309 119.683927 
L 247.547491 116.600085 
L 250.749673 113.503165 
L 253.951855 110.394245 
L 257.154036 107.27434 
L 260.356218 104.144398 
L 263.5584 101.005294 
L 266.760582 97.857834 
L 269.962764 94.702753 
L 273.164945 91.540722 
L 276.367127 88.372349 
L 279.569309 85.198186 
L 282.771491 82.018731 
L 285.973673 78.834437 
L 289.175855 75.645709 
L 292.378036 72.452918 
L 295.580218 69.256394 
L 298.7824 66.05644 
L 301.984582 62.853328 
L 305.186764 59.647304 
L 308.388945 56.438591 
L 311.591127 53.227393 
L 314.793309 50.013893 
L 317.995491 46.79826 
L 321.197673 43.580646 
L 324.399855 40.36119 
L 327.602036 37.14002 
L 330.804218 33.917252 
L 334.0064 30.692993 
L 337.208582 27.467339 
L 340.410764 24.240382 
L 343.612945 21.012203 
L 346.815127 17.782878 
L 350.017309 14.552477 
L 353.219491 11.321065 
L 356.421673 8.088701 
L 359.623855 4.855441 
L 362.826036 1.621336 
L 365.420858 -1 
" clip-path="url(#p4908a795f0)" style="fill: none; stroke-dasharray: 5.55,2.4; stroke-dashoffset: 0; stroke: #1f77b4; stroke-width: 1.5"/>
   </g>
   <g id="line2d_25">
    <path d="M 52.2144 319.272209 
L 55.416582 316.03542 
L 58.618764 312.79932 
L 61.820945 309.563948 
L 65.023127 306.329346 
L 68.225309 303.095559 
L 71.427491 299.862637 
L 74.629673 296.630632 
L 77.831855 293.3996 
L 81.034036 290.169604 
L 84.236218 286.94071 
L 87.4384 283.71299 
L 90.640582 280.486522 
L 93.842764 277.261392 
L 97.044945 274.037693 
L 100.247127 270.815524 
L 103.449309 267.594998 
L 106.651491 264.376233 
L 109.853673 261.159361 
L 113.055855 257.944528 
L 116.258036 254.73189 
L 119.460218 251.521622 
L 122.6624 248.313916 
L 125.864582 245.10898 
L 129.066764 241.907049 
L 132.268945 238.708377 
L 135.471127 235.513247 
L 138.673309 232.321973 
L 141.875491 229.134901 
L 145.077673 225.952412 
L 148.279855 222.774931 
L 151.482036 219.602927 
L 154.684218 216.436918 
L 157.8864 213.277477 
L 161.088582 210.125236 
L 164.290764 206.98089 
L 167.492945 203.845201 
L 170.695127 200.719001 
L 173.897309 197.603193 
L 177.099491 194.498752 
L 180.301673 191.406717 
L 183.503855 188.328189 
L 186.706036 185.264312 
L 189.908218 182.216261 
L 193.1104 179.185213 
L 196.312582 176.17232 
L 199.514764 173.178671 
L 202.716945 170.205252 
L 205.919127 167.252904 
L 209.121309 164.322287 
L 212.323491 161.413844 
L 215.525673 158.527778 
L 218.727855 155.664039 
L 221.930036 152.822332 
L 225.132218 150.002126 
L 228.3344 147.202689 
L 231.536582 144.423119 
L 234.738764 141.662384 
L 237.940945 138.919368 
L 241.143127 136.192905 
L 244.345309 133.481815 
L 247.547491 130.784934 
L 250.749673 128.10113 
L 253.951855 125.429327 
L 257.154036 122.768508 
L 260.356218 120.117727 
L 263.5584 117.476108 
L 266.760582 114.842844 
L 269.962764 112.217202 
L 273.164945 109.59851 
L 276.367127 106.986159 
L 279.569309 104.379599 
L 282.771491 101.77833 
L 285.973673 99.181902 
L 289.175855 96.589905 
L 292.378036 94.001974 
L 295.580218 91.417774 
L 298.7824 88.837004 
L 301.984582 86.259393 
L 305.186764 83.684694 
L 308.388945 81.112684 
L 311.591127 78.543159 
L 314.793309 75.975935 
L 317.995491 73.410845 
L 321.197673 70.847735 
L 324.399855 68.286467 
L 327.602036 65.726914 
L 330.804218 63.168959 
L 334.0064 60.612495 
L 337.208582 58.057425 
L 340.410764 55.503659 
L 343.612945 52.951115 
L 346.815127 50.399717 
L 350.017309 47.849394 
L 353.219491 45.300083 
L 356.421673 42.751723 
L 359.623855 40.204259 
L 362.826036 37.657641 
L 366.028218 35.11182 
L 369.2304 32.566753 
" clip-path="url(#p4908a795f0)" style="fill: none; stroke-dasharray: 5.55,2.4; stroke-dashoffset: 0; stroke: #1f77b4; stroke-width: 1.5"/>
   </g>
   <g id="line2d_26">
    <path d="M 52.2144 311.313352 
L 55.416582 308.1982 
L 58.618764 305.083049 
L 61.820945 301.967897 
L 65.023127 298.852746 
L 68.225309 295.737594 
L 71.427491 292.622443 
L 74.629673 289.507291 
L 77.831855 286.39214 
L 81.034036 283.276988 
L 84.236218 280.161837 
L 87.4384 277.046685 
L 90.640582 273.931534 
L 93.842764 270.816382 
L 97.044945 267.701231 
L 100.247127 264.586079 
L 103.449309 261.470928 
L 106.651491 258.355776 
L 109.853673 255.240625 
L 113.055855 252.125473 
L 116.258036 249.010322 
L 119.460218 245.89517 
L 122.6624 242.780019 
L 125.864582 239.664867 
L 129.066764 236.549716 
L 132.268945 233.434564 
L 135.471127 230.319413 
L 138.673309 227.204261 
L 141.875491 224.08911 
L 145.077673 220.973958 
L 148.279855 217.858807 
L 151.482036 214.743655 
L 154.684218 211.628504 
L 157.8864 208.513352 
L 161.088582 205.3982 
L 164.290764 202.283049 
L 167.492945 199.167897 
L 170.695127 196.052746 
L 173.897309 192.937594 
L 177.099491 189.822443 
L 180.301673 186.707291 
L 183.503855 183.59214 
L 186.706036 180.476988 
L 189.908218 177.361837 
L 193.1104 174.246685 
L 196.312582 171.131534 
L 199.514764 168.016382 
L 202.716945 164.901231 
L 205.919127 161.786079 
L 209.121309 158.670928 
L 212.323491 155.555776 
L 215.525673 152.440625 
L 218.727855 149.325473 
L 221.930036 146.210322 
L 225.132218 143.09517 
L 228.3344 139.980019 
L 231.536582 136.864867 
L 234.738764 133.749716 
L 237.940945 130.634564 
L 241.143127 127.519413 
L 244.345309 124.404261 
L 247.547491 121.28911 
L 250.749673 118.173958 
L 253.951855 115.058807 
L 257.154036 111.943655 
L 260.356218 108.828504 
L 263.5584 105.713352 
L 266.760582 102.5982 
L 269.962764 99.483049 
L 273.164945 96.367897 
L 276.367127 93.252746 
L 279.569309 90.137594 
L 282.771491 87.022443 
L 285.973673 83.907291 
L 289.175855 80.79214 
L 292.378036 77.676988 
L 295.580218 74.561837 
L 298.7824 71.446685 
L 301.984582 68.331534 
L 305.186764 65.216382 
L 308.388945 62.101231 
L 311.591127 58.986079 
L 314.793309 55.870928 
L 317.995491 52.755776 
L 321.197673 49.640625 
L 324.399855 46.525473 
L 327.602036 43.410322 
L 330.804218 40.29517 
L 334.0064 37.180019 
L 337.208582 34.064867 
L 340.410764 30.949716 
L 343.612945 27.834564 
L 346.815127 24.719413 
L 350.017309 21.604261 
L 353.219491 18.48911 
L 356.421673 15.373958 
L 359.623855 12.258807 
L 362.826036 9.143655 
L 366.028218 6.028504 
L 369.2304 2.913352 
" clip-path="url(#p4908a795f0)" style="fill: none; stroke: #2ca02c; stroke-width: 1.5; stroke-linecap: square"/>
   </g>
   <g id="line2d_27">
    <defs>
     <path id="m8ee8319eff" d="M 0 3 
C 0.795609 3 1.55874 2.683901 2.12132 2.12132 
C 2.683901 1.55874 3 0.795609 3 0 
C 3 -0.795609 2.683901 -1.55874 2.12132 -2.12132 
C 1.55874 -2.683901 0.795609 -3 0 -3 
C -0.795609 -3 -1.55874 -2.683901 -2.12132 -2.12132 
C -2.683901 -1.55874 -3 -0.795609 -3 0 
C -3 0.795609 -2.683901 1.55874 -2.12132 2.12132 
C -1.55874 2.683901 -0.795609 3 0 3 
z
" style="stroke: #000000"/>
    </defs>
    <g clip-path="url(#p4908a795f0)">
     <use xlink:href="#m8ee8319eff" x="144.14904" y="164.6856" style="fill: #ffffff; stroke: #000000"/>
     <use xlink:href="#m8ee8319eff" x="328.01832" y="48.1104" style="fill: #ffffff; stroke: #000000"/>
     <use xlink:href="#m8ee8319eff" x="316.605744" y="36.3912" style="fill: #ffffff; stroke: #000000"/>
     <use xlink:href="#m8ee8319eff" x="308.363328" y="38.8584" style="fill: #ffffff; stroke: #000000"/>
     <use xlink:href="#m8ee8319eff" x="302.65704" y="42.5592" style="fill: #ffffff; stroke: #000000"/>
     <use xlink:href="#m8ee8319eff" x="299.48688" y="43.7928" style="fill: #ffffff; stroke: #000000"/>
     <use xlink:href="#m8ee8319eff" x="189.799344" y="140.0136" style="fill: #ffffff; stroke: #000000"/>
     <use xlink:href="#m8ee8319eff" x="184.727088" y="144.3312" style="fill: #ffffff; stroke: #000000"/>
     <use xlink:href="#m8ee8319eff" x="231.645456" y="159.7512" style="fill: #ffffff; stroke: #000000"/>
     <use xlink:href="#m8ee8319eff" x="306.461232" y="24.0552" style="fill: #ffffff; stroke: #000000"/>
     <use xlink:href="#m8ee8319eff" x="307.095264" y="85.1184" style="fill: #ffffff; stroke: #000000"/>
     <use xlink:href="#m8ee8319eff" x="164.818483" y="220.93776" style="fill: #ffffff; stroke: #000000"/>
     <use xlink:href="#m8ee8319eff" x="164.881886" y="216.31176" style="fill: #ffffff; stroke: #000000"/>
     <use xlink:href="#m8ee8319eff" x="262.713024" y="56.7456" style="fill: #ffffff; stroke: #000000"/>
     <use xlink:href="#m8ee8319eff" x="227.841264" y="176.4048" style="fill: #ffffff; stroke: #000000"/>
     <use xlink:href="#m8ee8319eff" x="95.328576" y="235.0008" style="fill: #ffffff; stroke: #000000"/>
     <use xlink:href="#m8ee8319eff" x="246.228192" y="85.1184" style="fill: #ffffff; stroke: #000000"/>
     <use xlink:href="#m8ee8319eff" x="265.249152" y="125.2104" style="fill: #ffffff; stroke: #000000"/>
     <use xlink:href="#m8ee8319eff" x="257.006736" y="74.6328" style="fill: #ffffff; stroke: #000000"/>
     <use xlink:href="#m8ee8319eff" x="219.598848" y="188.7408" style="fill: #ffffff; stroke: #000000"/>
     <use xlink:href="#m8ee8319eff" x="94.060512" y="305.9328" style="fill: #ffffff; stroke: #000000"/>
     <use xlink:href="#m8ee8319eff" x="174.582576" y="143.7144" style="fill: #ffffff; stroke: #000000"/>
     <use xlink:href="#m8ee8319eff" x="260.176896" y="137.5464" style="fill: #ffffff; stroke: #000000"/>
     <use xlink:href="#m8ee8319eff" x="267.151248" y="81.4176" style="fill: #ffffff; stroke: #000000"/>
     <use xlink:href="#m8ee8319eff" x="243.058032" y="90.0528" style="fill: #ffffff; stroke: #000000"/>
     <use xlink:href="#m8ee8319eff" x="243.058032" y="95.604" style="fill: #ffffff; stroke: #000000"/>
     <use xlink:href="#m8ee8319eff" x="225.939168" y="115.3416" style="fill: #ffffff; stroke: #000000"/>
     <use xlink:href="#m8ee8319eff" x="213.258528" y="106.0896" style="fill: #ffffff; stroke: #000000"/>
     <use xlink:href="#m8ee8319eff" x="184.093056" y="149.8824" style="fill: #ffffff; stroke: #000000"/>
     <use xlink:href="#m8ee8319eff" x="151.757424" y="219.5808" style="fill: #ffffff; stroke: #000000"/>
     <use xlink:href="#m8ee8319eff" x="142.183541" y="216.68184" style="fill: #ffffff; stroke: #000000"/>
     <use xlink:href="#m8ee8319eff" x="124.494048" y="246.72" style="fill: #ffffff; stroke: #000000"/>
     <use xlink:href="#m8ee8319eff" x="239.25384" y="131.3784" style="fill: #ffffff; stroke: #000000"/>
     <use xlink:href="#m8ee8319eff" x="241.789968" y="165.9192" style="fill: #ffffff; stroke: #000000"/>
     <use xlink:href="#m8ee8319eff" x="244.326096" y="148.032" style="fill: #ffffff; stroke: #000000"/>
     <use xlink:href="#m8ee8319eff" x="250.032384" y="141.2472" style="fill: #ffffff; stroke: #000000"/>
     <use xlink:href="#m8ee8319eff" x="186.629184" y="139.3968" style="fill: #ffffff; stroke: #000000"/>
     <use xlink:href="#m8ee8319eff" x="271.589472" y="151.7328" style="fill: #ffffff; stroke: #000000"/>
     <use xlink:href="#m8ee8319eff" x="194.491181" y="165.9192" style="fill: #ffffff; stroke: #000000"/>
     <use xlink:href="#m8ee8319eff" x="142.183541" y="216.68184" style="fill: #ffffff; stroke: #000000"/>
     <use xlink:href="#m8ee8319eff" x="204.38208" y="139.3968" style="fill: #ffffff; stroke: #000000"/>
     <use xlink:href="#m8ee8319eff" x="204.38208" y="139.3968" style="fill: #ffffff; stroke: #000000"/>
     <use xlink:href="#m8ee8319eff" x="84.550032" y="310.8672" style="fill: #ffffff; stroke: #000000"/>
     <use xlink:href="#m8ee8319eff" x="145.163491" y="265.65576" style="fill: #ffffff; stroke: #000000"/>
     <use xlink:href="#m8ee8319eff" x="234.181584" y="178.872" style="fill: #ffffff; stroke: #000000"/>
     <use xlink:href="#m8ee8319eff" x="237.985776" y="135.696" style="fill: #ffffff; stroke: #000000"/>
     <use xlink:href="#m8ee8319eff" x="210.7224" y="183.8064" style="fill: #ffffff; stroke: #000000"/>
     <use xlink:href="#m8ee8319eff" x="206.284176" y="192.4416" style="fill: #ffffff; stroke: #000000"/>
     <use xlink:href="#m8ee8319eff" x="229.109328" y="133.2288" style="fill: #ffffff; stroke: #000000"/>
     <use xlink:href="#m8ee8319eff" x="229.109328" y="137.5464" style="fill: #ffffff; stroke: #000000"/>
     <use xlink:href="#m8ee8319eff" x="252.568512" y="126.444" style="fill: #ffffff; stroke: #000000"/>
     <use xlink:href="#m8ee8319eff" x="229.74336" y="146.7984" style="fill: #ffffff; stroke: #000000"/>
     <use xlink:href="#m8ee8319eff" x="241.155936" y="136.9296" style="fill: #ffffff; stroke: #000000"/>
     <use xlink:href="#m8ee8319eff" x="221.500944" y="138.78" style="fill: #ffffff; stroke: #000000"/>
     <use xlink:href="#m8ee8319eff" x="239.887872" y="156.6672" style="fill: #ffffff; stroke: #000000"/>
     <use xlink:href="#m8ee8319eff" x="234.815616" y="154.2" style="fill: #ffffff; stroke: #000000"/>
     <use xlink:href="#m8ee8319eff" x="272.223504" y="128.9112" style="fill: #ffffff; stroke: #000000"/>
     <use xlink:href="#m8ee8319eff" x="243.058032" y="150.4992" style="fill: #ffffff; stroke: #000000"/>
     <use xlink:href="#m8ee8319eff" x="246.228192" y="140.0136" style="fill: #ffffff; stroke: #000000"/>
     <use xlink:href="#m8ee8319eff" x="229.74336" y="146.7984" style="fill: #ffffff; stroke: #000000"/>
     <use xlink:href="#m8ee8319eff" x="241.789968" y="142.4808" style="fill: #ffffff; stroke: #000000"/>
     <use xlink:href="#m8ee8319eff" x="272.223504" y="128.9112" style="fill: #ffffff; stroke: #000000"/>
     <use xlink:href="#m8ee8319eff" x="226.5732" y="164.6856" style="fill: #ffffff; stroke: #000000"/>
     <use xlink:href="#m8ee8319eff" x="214.526592" y="180.1056" style="fill: #ffffff; stroke: #000000"/>
     <use xlink:href="#m8ee8319eff" x="221.500944" y="151.116" style="fill: #ffffff; stroke: #000000"/>
     <use xlink:href="#m8ee8319eff" x="231.645456" y="144.948" style="fill: #ffffff; stroke: #000000"/>
     <use xlink:href="#m8ee8319eff" x="229.109328" y="137.5464" style="fill: #ffffff; stroke: #000000"/>
     <use xlink:href="#m8ee8319eff" x="246.228192" y="140.0136" style="fill: #ffffff; stroke: #000000"/>
     <use xlink:href="#m8ee8319eff" x="224.037072" y="137.5464" style="fill: #ffffff; stroke: #000000"/>
     <use xlink:href="#m8ee8319eff" x="229.109328" y="137.5464" style="fill: #ffffff; stroke: #000000"/>
     <use xlink:href="#m8ee8319eff" x="235.449648" y="123.9768" style="fill: #ffffff; stroke: #000000"/>
     <use xlink:href="#m8ee8319eff" x="237.985776" y="136.3128" style="fill: #ffffff; stroke: #000000"/>
     <use xlink:href="#m8ee8319eff" x="119.421792" y="162.8352" style="fill: #ffffff; stroke: #000000"/>
     <use xlink:href="#m8ee8319eff" x="204.38208" y="121.5096" style="fill: #ffffff; stroke: #000000"/>
     <use xlink:href="#m8ee8319eff" x="83.091758" y="286.31856" style="fill: #ffffff; stroke: #000000"/>
     <use xlink:href="#m8ee8319eff" x="105.536491" y="289.46424" style="fill: #ffffff; stroke: #000000"/>
     <use xlink:href="#m8ee8319eff" x="117.900115" y="256.83552" style="fill: #ffffff; stroke: #000000"/>
     <use xlink:href="#m8ee8319eff" x="144.719669" y="117.192" style="fill: #ffffff; stroke: #000000"/>
     <use xlink:href="#m8ee8319eff" x="164.881886" y="216.31176" style="fill: #ffffff; stroke: #000000"/>
     <use xlink:href="#m8ee8319eff" x="165.072096" y="207.2448" style="fill: #ffffff; stroke: #000000"/>
     <use xlink:href="#m8ee8319eff" x="159.365808" y="180.1056" style="fill: #ffffff; stroke: #000000"/>
     <use xlink:href="#m8ee8319eff" x="149.221296" y="181.3392" style="fill: #ffffff; stroke: #000000"/>
     <use xlink:href="#m8ee8319eff" x="187.833845" y="127.55424" style="fill: #ffffff; stroke: #000000"/>
     <use xlink:href="#m8ee8319eff" x="185.36112" y="213.4128" style="fill: #ffffff; stroke: #000000"/>
     <use xlink:href="#m8ee8319eff" x="186.75599" y="131.81016" style="fill: #ffffff; stroke: #000000"/>
     <use xlink:href="#m8ee8319eff" x="219.598848" y="114.7248" style="fill: #ffffff; stroke: #000000"/>
     <use xlink:href="#m8ee8319eff" x="199.309824" y="70.932" style="fill: #ffffff; stroke: #000000"/>
     <use xlink:href="#m8ee8319eff" x="165.072096" y="207.8616" style="fill: #ffffff; stroke: #000000"/>
     <use xlink:href="#m8ee8319eff" x="160.633872" y="213.4128" style="fill: #ffffff; stroke: #000000"/>
     <use xlink:href="#m8ee8319eff" x="141.612912" y="275.0928" style="fill: #ffffff; stroke: #000000"/>
     <use xlink:href="#m8ee8319eff" x="218.964816" y="175.788" style="fill: #ffffff; stroke: #000000"/>
     <use xlink:href="#m8ee8319eff" x="161.267904" y="197.376" style="fill: #ffffff; stroke: #000000"/>
     <use xlink:href="#m8ee8319eff" x="287.440272" y="173.9376" style="fill: #ffffff; stroke: #000000"/>
     <use xlink:href="#m8ee8319eff" x="182.824992" y="190.5912" style="fill: #ffffff; stroke: #000000"/>
     <use xlink:href="#m8ee8319eff" x="147.3192" y="250.4208" style="fill: #ffffff; stroke: #000000"/>
     <use xlink:href="#m8ee8319eff" x="316.605744" y="33.3072" style="fill: #ffffff; stroke: #000000"/>
     <use xlink:href="#m8ee8319eff" x="311.533488" y="83.268" style="fill: #ffffff; stroke: #000000"/>
     <use xlink:href="#m8ee8319eff" x="317.239776" y="31.4568" style="fill: #ffffff; stroke: #000000"/>
     <use xlink:href="#m8ee8319eff" x="318.000614" y="63.46872" style="fill: #ffffff; stroke: #000000"/>
     <use xlink:href="#m8ee8319eff" x="312.16752" y="53.0448" style="fill: #ffffff; stroke: #000000"/>
     <use xlink:href="#m8ee8319eff" x="236.08368" y="200.46" style="fill: #ffffff; stroke: #000000"/>
     <use xlink:href="#m8ee8319eff" x="147.953232" y="231.3" style="fill: #ffffff; stroke: #000000"/>
     <use xlink:href="#m8ee8319eff" x="189.165312" y="205.3944" style="fill: #ffffff; stroke: #000000"/>
     <use xlink:href="#m8ee8319eff" x="276.661728" y="120.276" style="fill: #ffffff; stroke: #000000"/>
     <use xlink:href="#m8ee8319eff" x="194.237568" y="197.376" style="fill: #ffffff; stroke: #000000"/>
     <use xlink:href="#m8ee8319eff" x="187.263216" y="255.3552" style="fill: #ffffff; stroke: #000000"/>
     <use xlink:href="#m8ee8319eff" x="275.393664" y="91.2864" style="fill: #ffffff; stroke: #000000"/>
     <use xlink:href="#m8ee8319eff" x="196.773696" y="135.696" style="fill: #ffffff; stroke: #000000"/>
     <use xlink:href="#m8ee8319eff" x="286.80624" y="113.4912" style="fill: #ffffff; stroke: #000000"/>
     <use xlink:href="#m8ee8319eff" x="285.538176" y="135.696" style="fill: #ffffff; stroke: #000000"/>
     <use xlink:href="#m8ee8319eff" x="156.195648" y="213.4128" style="fill: #ffffff; stroke: #000000"/>
     <use xlink:href="#m8ee8319eff" x="208.820304" y="222.6648" style="fill: #ffffff; stroke: #000000"/>
     <use xlink:href="#m8ee8319eff" x="217.06272" y="108.5568" style="fill: #ffffff; stroke: #000000"/>
     <use xlink:href="#m8ee8319eff" x="223.40304" y="108.5568" style="fill: #ffffff; stroke: #000000"/>
     <use xlink:href="#m8ee8319eff" x="198.04176" y="145.5648" style="fill: #ffffff; stroke: #000000"/>
     <use xlink:href="#m8ee8319eff" x="204.38208" y="133.2288" style="fill: #ffffff; stroke: #000000"/>
     <use xlink:href="#m8ee8319eff" x="198.04176" y="133.2288" style="fill: #ffffff; stroke: #000000"/>
     <use xlink:href="#m8ee8319eff" x="210.7224" y="127.0608" style="fill: #ffffff; stroke: #000000"/>
     <use xlink:href="#m8ee8319eff" x="210.7224" y="145.5648" style="fill: #ffffff; stroke: #000000"/>
     <use xlink:href="#m8ee8319eff" x="217.06272" y="108.5568" style="fill: #ffffff; stroke: #000000"/>
     <use xlink:href="#m8ee8319eff" x="217.06272" y="127.0608" style="fill: #ffffff; stroke: #000000"/>
     <use xlink:href="#m8ee8319eff" x="198.04176" y="151.7328" style="fill: #ffffff; stroke: #000000"/>
     <use xlink:href="#m8ee8319eff" x="210.7224" y="133.2288" style="fill: #ffffff; stroke: #000000"/>
     <use xlink:href="#m8ee8319eff" x="191.70144" y="151.7328" style="fill: #ffffff; stroke: #000000"/>
     <use xlink:href="#m8ee8319eff" x="198.04176" y="151.7328" style="fill: #ffffff; stroke: #000000"/>
     <use xlink:href="#m8ee8319eff" x="210.7224" y="139.3968" style="fill: #ffffff; stroke: #000000"/>
     <use xlink:href="#m8ee8319eff" x="204.38208" y="139.3968" style="fill: #ffffff; stroke: #000000"/>
     <use xlink:href="#m8ee8319eff" x="166.974192" y="150.4992" style="fill: #ffffff; stroke: #000000"/>
     <use xlink:href="#m8ee8319eff" x="184.727088" y="139.3968" style="fill: #ffffff; stroke: #000000"/>
     <use xlink:href="#m8ee8319eff" x="261.44496" y="169.62" style="fill: #ffffff; stroke: #000000"/>
     <use xlink:href="#m8ee8319eff" x="198.04176" y="90.0528" style="fill: #ffffff; stroke: #000000"/>
     <use xlink:href="#m8ee8319eff" x="213.258528" y="188.7408" style="fill: #ffffff; stroke: #000000"/>
     <use xlink:href="#m8ee8319eff" x="198.04176" y="165.9192" style="fill: #ffffff; stroke: #000000"/>
     <use xlink:href="#m8ee8319eff" x="206.284176" y="170.2368" style="fill: #ffffff; stroke: #000000"/>
     <use xlink:href="#m8ee8319eff" x="190.433376" y="260.2896" style="fill: #ffffff; stroke: #000000"/>
     <use xlink:href="#m8ee8319eff" x="161.901936" y="267.0744" style="fill: #ffffff; stroke: #000000"/>
     <use xlink:href="#m8ee8319eff" x="183.459024" y="196.7592" style="fill: #ffffff; stroke: #000000"/>
     <use xlink:href="#m8ee8319eff" x="204.952709" y="94.3704" style="fill: #ffffff; stroke: #000000"/>
     <use xlink:href="#m8ee8319eff" x="182.19096" y="222.6648" style="fill: #ffffff; stroke: #000000"/>
     <use xlink:href="#m8ee8319eff" x="239.887872" y="167.1528" style="fill: #ffffff; stroke: #000000"/>
     <use xlink:href="#m8ee8319eff" x="161.901936" y="197.376" style="fill: #ffffff; stroke: #000000"/>
     <use xlink:href="#m8ee8319eff" x="192.969504" y="251.0376" style="fill: #ffffff; stroke: #000000"/>
     <use xlink:href="#m8ee8319eff" x="275.393664" y="40.7088" style="fill: #ffffff; stroke: #000000"/>
     <use xlink:href="#m8ee8319eff" x="299.48688" y="167.7696" style="fill: #ffffff; stroke: #000000"/>
     <use xlink:href="#m8ee8319eff" x="120.055824" y="252.2712" style="fill: #ffffff; stroke: #000000"/>
     <use xlink:href="#m8ee8319eff" x="185.36112" y="231.9168" style="fill: #ffffff; stroke: #000000"/>
     <use xlink:href="#m8ee8319eff" x="210.7224" y="176.4048" style="fill: #ffffff; stroke: #000000"/>
     <use xlink:href="#m8ee8319eff" x="148.587264" y="192.4416" style="fill: #ffffff; stroke: #000000"/>
     <use xlink:href="#m8ee8319eff" x="257.006736" y="53.0448" style="fill: #ffffff; stroke: #000000"/>
     <use xlink:href="#m8ee8319eff" x="245.59416" y="146.1816" style="fill: #ffffff; stroke: #000000"/>
    </g>
   </g>
   <g id="patch_3">
    <path d="M 52.2144 336.7728 
L 52.2144 3.7008 
" style="fill: none; stroke: #000000; stroke-width: 0.8; stroke-linejoin: miter; stroke-linecap: square"/>
   </g>
   <g id="patch_4">
    <path d="M 369.2304 336.7728 
L 369.2304 3.7008 
" style="fill: none; stroke: #000000; stroke-width: 0.8; stroke-linejoin: miter; stroke-linecap: square"/>
   </g>
   <g id="patch_5">
    <path d="M 52.2144 336.7728 
L 369.2304 336.7728 
" style="fill: none; stroke: #000000; stroke-width: 0.8; stroke-linejoin: miter; stroke-linecap: square"/>
   </g>
   <g id="patch_6">
    <path d="M 52.2144 3.7008 
L 369.2304 3.7008 
" style="fill: none; stroke: #000000; stroke-width: 0.8; stroke-linejoin: miter; stroke-linecap: square"/>
   </g>
   <g id="line2d_28">
    <defs>
     <path id="mf8ab10249c" d="M 0 -7.5 
L -1.683855 -2.317627 
L -7.132924 -2.317627 
L -2.724534 0.885255 
L -4.408389 6.067627 
L -0 2.864745 
L 4.408389 6.067627 
L 2.724534 0.885255 
L 7.132924 -2.317627 
L 1.683855 -2.317627 
z
" style="stroke: #000000; stroke-linejoin: bevel"/>
    </defs>
    <g clip-path="url(#p4908a795f0)">
     <use xlink:href="#mf8ab10249c" x="213.310519" y="154.595574" style="fill: #ffff00; stroke: #000000; stroke-linejoin: bevel"/>
    </g>
   </g>
   <g id="legend_1">
    <g id="patch_7">
     <path d="M 224.823994 332.2728 
L 362.9304 332.2728 
Q 364.7304 332.2728 364.7304 330.4728 
L 364.7304 265.321237 
Q 364.7304 263.521237 362.9304 263.521237 
L 224.823994 263.521237 
Q 223.023994 263.521237 223.023994 265.321237 
L 223.023994 330.4728 
Q 223.023994 332.2728 224.823994 332.2728 
z
" style="fill: #ffffff; stroke: #cccccc; stroke-linejoin: miter"/>
    </g>
    <g id="line2d_29">
     <g>
      <use xlink:href="#m8ee8319eff" x="235.623994" y="270.809831" style="fill: #ffffff; stroke: #000000"/>
     </g>
    </g>
    <g id="text_14">
     <!-- Experiments (150) -->
     <g transform="translate(251.823994 273.959831) scale(0.09 -0.09)">
      <defs>
       <path id="DejaVuSans-45" d="M 628 4666 
L 3578 4666 
L 3578 4134 
L 1259 4134 
L 1259 2753 
L 3481 2753 
L 3481 2222 
L 1259 2222 
L 1259 531 
L 3634 531 
L 3634 0 
L 628 0 
L 628 4666 
z
" transform="scale(0.015625)"/>
       <path id="DejaVuSans-78" d="M 3513 3500 
L 2247 1797 
L 3578 0 
L 2900 0 
L 1881 1375 
L 863 0 
L 184 0 
L 1544 1831 
L 300 3500 
L 978 3500 
L 1906 2253 
L 2834 3500 
L 3513 3500 
z
" transform="scale(0.015625)"/>
       <path id="DejaVuSans-70" d="M 1159 525 
L 1159 -1331 
L 581 -1331 
L 581 3500 
L 1159 3500 
L 1159 2969 
Q 1341 3281 1617 3432 
Q 1894 3584 2278 3584 
Q 2916 3584 3314 3078 
Q 3713 2572 3713 1747 
Q 3713 922 3314 415 
Q 2916 -91 2278 -91 
Q 1894 -91 1617 61 
Q 1341 213 1159 525 
z
M 3116 1747 
Q 3116 2381 2855 2742 
Q 2594 3103 2138 3103 
Q 1681 3103 1420 2742 
Q 1159 2381 1159 1747 
Q 1159 1113 1420 752 
Q 1681 391 2138 391 
Q 2594 391 2855 752 
Q 3116 1113 3116 1747 
z
" transform="scale(0.015625)"/>
       <path id="DejaVuSans-65" d="M 3597 1894 
L 3597 1613 
L 953 1613 
Q 991 1019 1311 708 
Q 1631 397 2203 397 
Q 2534 397 2845 478 
Q 3156 559 3463 722 
L 3463 178 
Q 3153 47 2828 -22 
Q 2503 -91 2169 -91 
Q 1331 -91 842 396 
Q 353 884 353 1716 
Q 353 2575 817 3079 
Q 1281 3584 2069 3584 
Q 2775 3584 3186 3129 
Q 3597 2675 3597 1894 
z
M 3022 2063 
Q 3016 2534 2758 2815 
Q 2500 3097 2075 3097 
Q 1594 3097 1305 2825 
Q 1016 2553 972 2059 
L 3022 2063 
z
" transform="scale(0.015625)"/>
       <path id="DejaVuSans-72" d="M 2631 2963 
Q 2534 3019 2420 3045 
Q 2306 3072 2169 3072 
Q 1681 3072 1420 2755 
Q 1159 2438 1159 1844 
L 1159 0 
L 581 0 
L 581 3500 
L 1159 3500 
L 1159 2956 
Q 1341 3275 1631 3429 
Q 1922 3584 2338 3584 
Q 2397 3584 2469 3576 
Q 2541 3569 2628 3553 
L 2631 2963 
z
" transform="scale(0.015625)"/>
       <path id="DejaVuSans-69" d="M 603 3500 
L 1178 3500 
L 1178 0 
L 603 0 
L 603 3500 
z
M 603 4863 
L 1178 4863 
L 1178 4134 
L 603 4134 
L 603 4863 
z
" transform="scale(0.015625)"/>
       <path id="DejaVuSans-6e" d="M 3513 2113 
L 3513 0 
L 2938 0 
L 2938 2094 
Q 2938 2591 2744 2837 
Q 2550 3084 2163 3084 
Q 1697 3084 1428 2787 
Q 1159 2491 1159 1978 
L 1159 0 
L 581 0 
L 581 3500 
L 1159 3500 
L 1159 2956 
Q 1366 3272 1645 3428 
Q 1925 3584 2291 3584 
Q 2894 3584 3203 3211 
Q 3513 2838 3513 2113 
z
" transform="scale(0.015625)"/>
       <path id="DejaVuSans-74" d="M 1172 4494 
L 1172 3500 
L 2356 3500 
L 2356 3053 
L 1172 3053 
L 1172 1153 
Q 1172 725 1289 603 
Q 1406 481 1766 481 
L 2356 481 
L 2356 0 
L 1766 0 
Q 1100 0 847 248 
Q 594 497 594 1153 
L 594 3053 
L 172 3053 
L 172 3500 
L 594 3500 
L 594 4494 
L 1172 4494 
z
" transform="scale(0.015625)"/>
       <path id="DejaVuSans-73" d="M 2834 3397 
L 2834 2853 
Q 2591 2978 2328 3040 
Q 2066 3103 1784 3103 
Q 1356 3103 1142 2972 
Q 928 2841 928 2578 
Q 928 2378 1081 2264 
Q 1234 2150 1697 2047 
L 1894 2003 
Q 2506 1872 2764 1633 
Q 3022 1394 3022 966 
Q 3022 478 2636 193 
Q 2250 -91 1575 -91 
Q 1294 -91 989 -36 
Q 684 19 347 128 
L 347 722 
Q 666 556 975 473 
Q 1284 391 1588 391 
Q 1994 391 2212 530 
Q 2431 669 2431 922 
Q 2431 1156 2273 1281 
Q 2116 1406 1581 1522 
L 1381 1569 
Q 847 1681 609 1914 
Q 372 2147 372 2553 
Q 372 3047 722 3315 
Q 1072 3584 1716 3584 
Q 2034 3584 2315 3537 
Q 2597 3491 2834 3397 
z
" transform="scale(0.015625)"/>
      </defs>
      <use xlink:href="#DejaVuSans-45"/>
      <use xlink:href="#DejaVuSans-78" transform="translate(63.183594 0)"/>
      <use xlink:href="#DejaVuSans-70" transform="translate(122.363281 0)"/>
      <use xlink:href="#DejaVuSans-65" transform="translate(185.839844 0)"/>
      <use xlink:href="#DejaVuSans-72" transform="translate(247.363281 0)"/>
      <use xlink:href="#DejaVuSans-69" transform="translate(288.476562 0)"/>
      <use xlink:href="#DejaVuSans-6d" transform="translate(316.259766 0)"/>
      <use xlink:href="#DejaVuSans-65" transform="translate(413.671875 0)"/>
      <use xlink:href="#DejaVuSans-6e" transform="translate(475.195312 0)"/>
      <use xlink:href="#DejaVuSans-74" transform="translate(538.574219 0)"/>
      <use xlink:href="#DejaVuSans-73" transform="translate(577.783203 0)"/>
      <use xlink:href="#DejaVuSans-20" transform="translate(629.882812 0)"/>
      <use xlink:href="#DejaVuSans-28" transform="translate(661.669922 0)"/>
      <use xlink:href="#DejaVuSans-31" transform="translate(700.683594 0)"/>
      <use xlink:href="#DejaVuSans-35" transform="translate(764.306641 0)"/>
      <use xlink:href="#DejaVuSans-30" transform="translate(827.929688 0)"/>
      <use xlink:href="#DejaVuSans-29" transform="translate(891.552734 0)"/>
     </g>
    </g>
    <g id="line2d_30">
     <defs>
      <path id="m7d1a386991" d="M 0 -5.5 
L -1.234827 -1.699593 
L -5.230811 -1.699593 
L -1.997992 0.649187 
L -3.232819 4.449593 
L -0 2.100813 
L 3.232819 4.449593 
L 1.997992 0.649187 
L 5.230811 -1.699593 
L 1.234827 -1.699593 
z
" style="stroke: #000000; stroke-linejoin: bevel"/>
     </defs>
     <g>
      <use xlink:href="#m7d1a386991" x="235.623994" y="284.020144" style="fill: #ffff00; stroke: #000000; stroke-linejoin: bevel"/>
     </g>
    </g>
    <g id="text_15">
     <!-- Mean-of-means -->
     <g transform="translate(251.823994 287.170144) scale(0.09 -0.09)">
      <defs>
       <path id="DejaVuSans-4d" d="M 628 4666 
L 1569 4666 
L 2759 1491 
L 3956 4666 
L 4897 4666 
L 4897 0 
L 4281 0 
L 4281 4097 
L 3078 897 
L 2444 897 
L 1241 4097 
L 1241 0 
L 628 0 
L 628 4666 
z
" transform="scale(0.015625)"/>
       <path id="DejaVuSans-61" d="M 2194 1759 
Q 1497 1759 1228 1600 
Q 959 1441 959 1056 
Q 959 750 1161 570 
Q 1363 391 1709 391 
Q 2188 391 2477 730 
Q 2766 1069 2766 1631 
L 2766 1759 
L 2194 1759 
z
M 3341 1997 
L 3341 0 
L 2766 0 
L 2766 531 
Q 2569 213 2275 61 
Q 1981 -91 1556 -91 
Q 1019 -91 701 211 
Q 384 513 384 1019 
Q 384 1609 779 1909 
Q 1175 2209 1959 2209 
L 2766 2209 
L 2766 2266 
Q 2766 2663 2505 2880 
Q 2244 3097 1772 3097 
Q 1472 3097 1187 3025 
Q 903 2953 641 2809 
L 641 3341 
Q 956 3463 1253 3523 
Q 1550 3584 1831 3584 
Q 2591 3584 2966 3190 
Q 3341 2797 3341 1997 
z
" transform="scale(0.015625)"/>
       <path id="DejaVuSans-2d" d="M 313 2009 
L 1997 2009 
L 1997 1497 
L 313 1497 
L 313 2009 
z
" transform="scale(0.015625)"/>
       <path id="DejaVuSans-6f" d="M 1959 3097 
Q 1497 3097 1228 2736 
Q 959 2375 959 1747 
Q 959 1119 1226 758 
Q 1494 397 1959 397 
Q 2419 397 2687 759 
Q 2956 1122 2956 1747 
Q 2956 2369 2687 2733 
Q 2419 3097 1959 3097 
z
M 1959 3584 
Q 2709 3584 3137 3096 
Q 3566 2609 3566 1747 
Q 3566 888 3137 398 
Q 2709 -91 1959 -91 
Q 1206 -91 779 398 
Q 353 888 353 1747 
Q 353 2609 779 3096 
Q 1206 3584 1959 3584 
z
" transform="scale(0.015625)"/>
       <path id="DejaVuSans-66" d="M 2375 4863 
L 2375 4384 
L 1825 4384 
Q 1516 4384 1395 4259 
Q 1275 4134 1275 3809 
L 1275 3500 
L 2222 3500 
L 2222 3053 
L 1275 3053 
L 1275 0 
L 697 0 
L 697 3053 
L 147 3053 
L 147 3500 
L 697 3500 
L 697 3744 
Q 697 4328 969 4595 
Q 1241 4863 1831 4863 
L 2375 4863 
z
" transform="scale(0.015625)"/>
      </defs>
      <use xlink:href="#DejaVuSans-4d"/>
      <use xlink:href="#DejaVuSans-65" transform="translate(86.279297 0)"/>
      <use xlink:href="#DejaVuSans-61" transform="translate(147.802734 0)"/>
      <use xlink:href="#DejaVuSans-6e" transform="translate(209.082031 0)"/>
      <use xlink:href="#DejaVuSans-2d" transform="translate(272.460938 0)"/>
      <use xlink:href="#DejaVuSans-6f" transform="translate(310.419922 0)"/>
      <use xlink:href="#DejaVuSans-66" transform="translate(371.601562 0)"/>
      <use xlink:href="#DejaVuSans-2d" transform="translate(401.306641 0)"/>
      <use xlink:href="#DejaVuSans-6d" transform="translate(437.390625 0)"/>
      <use xlink:href="#DejaVuSans-65" transform="translate(534.802734 0)"/>
      <use xlink:href="#DejaVuSans-61" transform="translate(596.326172 0)"/>
      <use xlink:href="#DejaVuSans-6e" transform="translate(657.605469 0)"/>
      <use xlink:href="#DejaVuSans-73" transform="translate(720.984375 0)"/>
     </g>
    </g>
    <g id="line2d_31">
     <path d="M 226.623994 297.230456 
L 235.623994 297.230456 
L 244.623994 297.230456 
" style="fill: none; stroke: #1f77b4; stroke-width: 1.5; stroke-linecap: square"/>
    </g>
    <g id="text_16">
     <!-- -45.7 mV + 0.93 $V_a$ -->
     <g transform="translate(251.823994 300.380456) scale(0.09 -0.09)">
      <defs>
       <path id="DejaVuSans-2e" d="M 684 794 
L 1344 794 
L 1344 0 
L 684 0 
L 684 794 
z
" transform="scale(0.015625)"/>
       <path id="DejaVuSans-2b" d="M 2944 4013 
L 2944 2272 
L 4684 2272 
L 4684 1741 
L 2944 1741 
L 2944 0 
L 2419 0 
L 2419 1741 
L 678 1741 
L 678 2272 
L 2419 2272 
L 2419 4013 
L 2944 4013 
z
" transform="scale(0.015625)"/>
       <path id="DejaVuSans-Oblique-56" d="M 1319 0 
L 500 4666 
L 1119 4666 
L 1797 653 
L 4063 4666 
L 4750 4666 
L 2053 0 
L 1319 0 
z
" transform="scale(0.015625)"/>
      </defs>
      <use xlink:href="#DejaVuSans-2d" transform="translate(0 0.78125)"/>
      <use xlink:href="#DejaVuSans-34" transform="translate(36.083984 0.78125)"/>
      <use xlink:href="#DejaVuSans-35" transform="translate(99.707031 0.78125)"/>
      <use xlink:href="#DejaVuSans-2e" transform="translate(163.330078 0.78125)"/>
      <use xlink:href="#DejaVuSans-37" transform="translate(187.367188 0.78125)"/>
      <use xlink:href="#DejaVuSans-20" transform="translate(250.990234 0.78125)"/>
      <use xlink:href="#DejaVuSans-6d" transform="translate(282.777344 0.78125)"/>
      <use xlink:href="#DejaVuSans-56" transform="translate(380.189453 0.78125)"/>
      <use xlink:href="#DejaVuSans-20" transform="translate(448.597656 0.78125)"/>
      <use xlink:href="#DejaVuSans-2b" transform="translate(480.384766 0.78125)"/>
      <use xlink:href="#DejaVuSans-20" transform="translate(564.173828 0.78125)"/>
      <use xlink:href="#DejaVuSans-30" transform="translate(595.960938 0.78125)"/>
      <use xlink:href="#DejaVuSans-2e" transform="translate(659.583984 0.78125)"/>
      <use xlink:href="#DejaVuSans-39" transform="translate(691.371094 0.78125)"/>
      <use xlink:href="#DejaVuSans-33" transform="translate(754.994141 0.78125)"/>
      <use xlink:href="#DejaVuSans-20" transform="translate(818.617188 0.78125)"/>
      <use xlink:href="#DejaVuSans-Oblique-56" transform="translate(850.404297 0.78125)"/>
      <use xlink:href="#DejaVuSans-Oblique-61" transform="translate(918.8125 -15.625) scale(0.7)"/>
     </g>
    </g>
    <g id="line2d_32">
     <path d="M 226.623994 310.440769 
L 235.623994 310.440769 
L 244.623994 310.440769 
" style="fill: none; stroke-dasharray: 5.55,2.4; stroke-dashoffset: 0; stroke: #1f77b4; stroke-width: 1.5"/>
    </g>
    <g id="text_17">
     <!-- 95% confidence interval -->
     <g transform="translate(251.823994 313.590769) scale(0.09 -0.09)">
      <defs>
       <path id="DejaVuSans-25" d="M 4653 2053 
Q 4381 2053 4226 1822 
Q 4072 1591 4072 1178 
Q 4072 772 4226 539 
Q 4381 306 4653 306 
Q 4919 306 5073 539 
Q 5228 772 5228 1178 
Q 5228 1588 5073 1820 
Q 4919 2053 4653 2053 
z
M 4653 2450 
Q 5147 2450 5437 2106 
Q 5728 1763 5728 1178 
Q 5728 594 5436 251 
Q 5144 -91 4653 -91 
Q 4153 -91 3862 251 
Q 3572 594 3572 1178 
Q 3572 1766 3864 2108 
Q 4156 2450 4653 2450 
z
M 1428 4353 
Q 1159 4353 1004 4120 
Q 850 3888 850 3481 
Q 850 3069 1003 2837 
Q 1156 2606 1428 2606 
Q 1700 2606 1854 2837 
Q 2009 3069 2009 3481 
Q 2009 3884 1853 4118 
Q 1697 4353 1428 4353 
z
M 4250 4750 
L 4750 4750 
L 1831 -91 
L 1331 -91 
L 4250 4750 
z
M 1428 4750 
Q 1922 4750 2215 4408 
Q 2509 4066 2509 3481 
Q 2509 2891 2217 2550 
Q 1925 2209 1428 2209 
Q 931 2209 642 2551 
Q 353 2894 353 3481 
Q 353 4063 643 4406 
Q 934 4750 1428 4750 
z
" transform="scale(0.015625)"/>
       <path id="DejaVuSans-63" d="M 3122 3366 
L 3122 2828 
Q 2878 2963 2633 3030 
Q 2388 3097 2138 3097 
Q 1578 3097 1268 2742 
Q 959 2388 959 1747 
Q 959 1106 1268 751 
Q 1578 397 2138 397 
Q 2388 397 2633 464 
Q 2878 531 3122 666 
L 3122 134 
Q 2881 22 2623 -34 
Q 2366 -91 2075 -91 
Q 1284 -91 818 406 
Q 353 903 353 1747 
Q 353 2603 823 3093 
Q 1294 3584 2113 3584 
Q 2378 3584 2631 3529 
Q 2884 3475 3122 3366 
z
" transform="scale(0.015625)"/>
       <path id="DejaVuSans-64" d="M 2906 2969 
L 2906 4863 
L 3481 4863 
L 3481 0 
L 2906 0 
L 2906 525 
Q 2725 213 2448 61 
Q 2172 -91 1784 -91 
Q 1150 -91 751 415 
Q 353 922 353 1747 
Q 353 2572 751 3078 
Q 1150 3584 1784 3584 
Q 2172 3584 2448 3432 
Q 2725 3281 2906 2969 
z
M 947 1747 
Q 947 1113 1208 752 
Q 1469 391 1925 391 
Q 2381 391 2643 752 
Q 2906 1113 2906 1747 
Q 2906 2381 2643 2742 
Q 2381 3103 1925 3103 
Q 1469 3103 1208 2742 
Q 947 2381 947 1747 
z
" transform="scale(0.015625)"/>
       <path id="DejaVuSans-76" d="M 191 3500 
L 800 3500 
L 1894 563 
L 2988 3500 
L 3597 3500 
L 2284 0 
L 1503 0 
L 191 3500 
z
" transform="scale(0.015625)"/>
       <path id="DejaVuSans-6c" d="M 603 4863 
L 1178 4863 
L 1178 0 
L 603 0 
L 603 4863 
z
" transform="scale(0.015625)"/>
      </defs>
      <use xlink:href="#DejaVuSans-39"/>
      <use xlink:href="#DejaVuSans-35" transform="translate(63.623047 0)"/>
      <use xlink:href="#DejaVuSans-25" transform="translate(127.246094 0)"/>
      <use xlink:href="#DejaVuSans-20" transform="translate(222.265625 0)"/>
      <use xlink:href="#DejaVuSans-63" transform="translate(254.052734 0)"/>
      <use xlink:href="#DejaVuSans-6f" transform="translate(309.033203 0)"/>
      <use xlink:href="#DejaVuSans-6e" transform="translate(370.214844 0)"/>
      <use xlink:href="#DejaVuSans-66" transform="translate(433.59375 0)"/>
      <use xlink:href="#DejaVuSans-69" transform="translate(468.798828 0)"/>
      <use xlink:href="#DejaVuSans-64" transform="translate(496.582031 0)"/>
      <use xlink:href="#DejaVuSans-65" transform="translate(560.058594 0)"/>
      <use xlink:href="#DejaVuSans-6e" transform="translate(621.582031 0)"/>
      <use xlink:href="#DejaVuSans-63" transform="translate(684.960938 0)"/>
      <use xlink:href="#DejaVuSans-65" transform="translate(739.941406 0)"/>
      <use xlink:href="#DejaVuSans-20" transform="translate(801.464844 0)"/>
      <use xlink:href="#DejaVuSans-69" transform="translate(833.251953 0)"/>
      <use xlink:href="#DejaVuSans-6e" transform="translate(861.035156 0)"/>
      <use xlink:href="#DejaVuSans-74" transform="translate(924.414062 0)"/>
      <use xlink:href="#DejaVuSans-65" transform="translate(963.623047 0)"/>
      <use xlink:href="#DejaVuSans-72" transform="translate(1025.146484 0)"/>
      <use xlink:href="#DejaVuSans-76" transform="translate(1066.259766 0)"/>
      <use xlink:href="#DejaVuSans-61" transform="translate(1125.439453 0)"/>
      <use xlink:href="#DejaVuSans-6c" transform="translate(1186.71875 0)"/>
     </g>
    </g>
    <g id="line2d_33">
     <path d="M 226.623994 323.651081 
L 235.623994 323.651081 
L 244.623994 323.651081 
" style="fill: none; stroke: #2ca02c; stroke-width: 1.5; stroke-linecap: square"/>
    </g>
    <g id="text_18">
     <!-- -42.9 mV + 1.00 $V_a$ -->
     <g transform="translate(251.823994 326.801081) scale(0.09 -0.09)">
      <use xlink:href="#DejaVuSans-2d" transform="translate(0 0.78125)"/>
      <use xlink:href="#DejaVuSans-34" transform="translate(36.083984 0.78125)"/>
      <use xlink:href="#DejaVuSans-32" transform="translate(99.707031 0.78125)"/>
      <use xlink:href="#DejaVuSans-2e" transform="translate(163.330078 0.78125)"/>
      <use xlink:href="#DejaVuSans-39" transform="translate(195.117188 0.78125)"/>
      <use xlink:href="#DejaVuSans-20" transform="translate(258.740234 0.78125)"/>
      <use xlink:href="#DejaVuSans-6d" transform="translate(290.527344 0.78125)"/>
      <use xlink:href="#DejaVuSans-56" transform="translate(387.939453 0.78125)"/>
      <use xlink:href="#DejaVuSans-20" transform="translate(456.347656 0.78125)"/>
      <use xlink:href="#DejaVuSans-2b" transform="translate(488.134766 0.78125)"/>
      <use xlink:href="#DejaVuSans-20" transform="translate(571.923828 0.78125)"/>
      <use xlink:href="#DejaVuSans-31" transform="translate(603.710938 0.78125)"/>
      <use xlink:href="#DejaVuSans-2e" transform="translate(667.333984 0.78125)"/>
      <use xlink:href="#DejaVuSans-30" transform="translate(699.121094 0.78125)"/>
      <use xlink:href="#DejaVuSans-30" transform="translate(762.744141 0.78125)"/>
      <use xlink:href="#DejaVuSans-20" transform="translate(826.367188 0.78125)"/>
      <use xlink:href="#DejaVuSans-Oblique-56" transform="translate(858.154297 0.78125)"/>
      <use xlink:href="#DejaVuSans-Oblique-61" transform="translate(926.5625 -15.625) scale(0.7)"/>
     </g>
    </g>
   </g>
  </g>
 </g>
 <defs>
  <clipPath id="p4908a795f0">
   <rect x="52.2144" y="3.7008" width="317.016" height="333.072"/>
  </clipPath>
 </defs>
</svg>
